# xmcd
#
# Track frame offsets: 
#        182
#        17485
#        40797
#        58267
#        96010
#        118230
#
# Disc length: 1800 seconds
#
# Revision: 2
# Processed by: cddbd v1.5.2PL0 Copyright (c) Steve Scherf et al.
# Submitted via: ExactAudioCopyFreeDBPlugin 1.0
#
DISCID=48070606
DTITLE=Soul For Real - Every Little Thing I Do [CDS UK)
DYEAR=1996
DGENRE=R&B
TTITLE0=Every Little Thing I Do (Radio Version)
TTITLE1=Every Little Thing I Do (Linslee Mix)
TTITLE2=Every Little Thing I Do (Trakmasterz Bounce Mix)
TTITLE3=Every Little Thing I Do (Dudearella Remix)
TTITLE4=Every Little Thing I Do (Puff Daddy Mix)
TTITLE5=Every Little Thing I Do (Sex Meets The Dawg Mix)
EXTD=
EXTT0=
EXTT1=
EXTT2=
EXTT3=
EXTT4=
EXTT5=
PLAYORDER=
